<svg xmlns="http://www.w3.org/2000/svg" version="1.1" xmlns:xlink="http://www.w3.org/1999/xlink" xmlns:svgjs="http://svgjs.dev/svgjs" width="2000" height="207" viewBox="0 0 2000 207"><g transform="matrix(1,0,0,1,-1.2121212121212466,-0.7849231446091096)"><svg viewBox="0 0 396 41" data-background-color="#dee5ed" preserveAspectRatio="xMidYMid meet" height="207" width="2000" xmlns="http://www.w3.org/2000/svg" xmlns:xlink="http://www.w3.org/1999/xlink"><g id="tight-bounds" transform="matrix(1,0,0,1,0.2400000000000091,0.1554678692220932)"><svg viewBox="0 0 395.52 40.6890642615558" height="40.6890642615558" width="395.52"><g><svg viewBox="0 0 395.52 40.6890642615558" height="40.6890642615558" width="395.52"><g><svg viewBox="0 0 395.52 40.6890642615558" height="40.6890642615558" width="395.52"><g id="textblocktransform"><svg viewBox="0 0 395.52 40.6890642615558" height="40.6890642615558" width="395.52" id="textblock"><g><svg viewBox="0 0 395.52 40.6890642615558" height="40.6890642615558" width="395.52"><g transform="matrix(1,0,0,1,0,0)"><svg width="395.52" viewBox="2.3 -36 354.77 36.5" height="40.6890642615558" data-palette-color="#ffffff"><path d="M2.3-2.4L6.5-3.45 6.5-32.55 2.3-33.6 2.3-36 12.5-36 30.55-8.75 30.55-32.55 26.35-33.6 26.35-36 38.5-36 38.5-33.6 34.3-32.55 34.3 0 30.05 0 10.25-29.55 10.25-3.45 14.45-2.4 14.45 0 2.3 0 2.3-2.4ZM40.8-27L49.5-27 49.5-13.1Q49.5-9.9 49.67-8.28 49.85-6.65 50.25-5.75L50.25-5.75Q50.75-4.55 51.8-3.93 52.85-3.3 54.1-3.3L54.1-3.3Q55.45-3.3 56.65-3.8 57.85-4.3 58.8-5.15L58.8-5.15Q60.85-7 61.05-10.9L61.05-10.9 61.05-23.75 56.7-24.7 56.7-27 66.4-27 66.4-3.25 70.25-2.3 70.25 0 62 0.5 61.45-5 61.25-5Q59.8-2.45 57.3-0.98 54.8 0.5 51.95 0.5L51.95 0.5Q50.05 0.5 48.47-0.23 46.9-0.95 46-2.2L46-2.2Q45.05-3.6 44.6-6.15 44.15-8.7 44.15-12.95L44.15-12.95 44.15-23.75 40.8-24.7 40.8-27ZM73.1-2.3L76.95-3.25 76.95-23.75 73.1-24.7 73.1-27 80.8-27 81.9-22 82.1-22Q83.6-24.55 86.15-26.03 88.7-27.5 91.6-27.5L91.6-27.5Q95.75-27.5 97.75-24.8L97.75-24.8Q98.75-23.4 99.17-20.88 99.6-18.35 99.6-14.05L99.6-14.05 99.6-3.25 103.45-2.3 103.45 0 90.9 0 90.9-2.3 94.25-3.25 94.25-13.9Q94.25-17.05 94.07-18.68 93.9-20.3 93.45-21.25L93.45-21.25Q92.9-22.5 91.82-23.08 90.75-23.65 89.3-23.65L89.3-23.65Q86.55-23.65 84.55-21.9L84.55-21.9Q82.5-20 82.3-16.1L82.3-16.1 82.3-3.25 85.65-2.3 85.65 0 73.1 0 73.1-2.3ZM106.19-5.85L106.19-5.85Q106.19-9.85 109.89-12.1 113.59-14.35 121.94-15.6L121.94-15.6Q121.74-18.4 121.39-19.95 121.04-21.5 120.49-22.5L120.49-22.5Q119.84-23.75 118.69-24.4 117.54-25.05 116.09-25.05L116.09-25.05Q114.79-25.05 113.74-24.58 112.69-24.1 112.34-23.3L112.34-23.3Q113.04-22.85 113.34-22.08 113.64-21.3 113.64-20.65L113.64-20.65Q113.64-19.4 112.74-18.6 111.84-17.8 110.49-17.8L110.49-17.8Q109.19-17.8 108.37-18.68 107.54-19.55 107.54-21L107.54-21Q107.54-23.1 108.99-24.55 110.44-26 112.69-26.75 114.94-27.5 117.19-27.5L117.19-27.5Q119.34-27.5 121.12-26.85 122.89-26.2 124.09-25.1L124.09-25.1Q127.44-21.85 127.44-14.05L127.44-14.05 127.44-7.05Q127.44-4.6 127.77-3.65 128.09-2.7 129.19-2.7L129.19-2.7 131.44-2.7 131.44-0.95Q127.54 0.5 125.39 0.5L125.39 0.5Q123.84 0.5 123.29-0.63 122.74-1.75 122.74-4.95L122.74-4.95 122.54-4.95Q120.99-2.4 118.44-0.95 115.89 0.5 112.94 0.5L112.94 0.5Q109.79 0.5 107.99-1.2 106.19-2.9 106.19-5.85ZM115.39-2.65L115.39-2.65Q116.64-2.65 118.09-3.38 119.54-4.1 120.54-5.35L120.54-5.35Q121.29-6.25 121.69-7.6 122.09-8.95 122.09-10.8L122.09-10.8Q122.09-11.55 122.04-12.35 121.99-13.15 121.89-13.9L121.89-13.9Q118.04-13.1 115.87-12.2 113.69-11.3 112.77-10.05 111.84-8.8 111.84-7L111.84-7Q111.84-4.85 112.84-3.75 113.84-2.65 115.39-2.65ZM133.19-2.3L137.04-3.25 137.04-23.75 133.19-24.7 133.19-27 140.89-27 141.99-22 142.19-22Q143.69-24.55 146.24-26.03 148.79-27.5 151.69-27.5L151.69-27.5Q155.84-27.5 157.84-24.8L157.84-24.8Q158.84-23.4 159.27-20.88 159.69-18.35 159.69-14.05L159.69-14.05 159.69-3.25 163.54-2.3 163.54 0 150.99 0 150.99-2.3 154.34-3.25 154.34-13.9Q154.34-17.05 154.17-18.68 153.99-20.3 153.54-21.25L153.54-21.25Q152.99-22.5 151.92-23.08 150.84-23.65 149.39-23.65L149.39-23.65Q146.64-23.65 144.64-21.9L144.64-21.9Q142.59-20 142.39-16.1L142.39-16.1 142.39-3.25 145.74-2.3 145.74 0 133.19 0 133.19-2.3ZM166.29-5.85L166.29-5.85Q166.29-9.85 169.99-12.1 173.69-14.35 182.04-15.6L182.04-15.6Q181.84-18.4 181.49-19.95 181.14-21.5 180.59-22.5L180.59-22.5Q179.94-23.75 178.79-24.4 177.64-25.05 176.19-25.05L176.19-25.05Q174.89-25.05 173.84-24.58 172.79-24.1 172.44-23.3L172.44-23.3Q173.14-22.85 173.44-22.08 173.74-21.3 173.74-20.65L173.74-20.65Q173.74-19.4 172.84-18.6 171.94-17.8 170.59-17.8L170.59-17.8Q169.29-17.8 168.46-18.68 167.64-19.55 167.64-21L167.64-21Q167.64-23.1 169.09-24.55 170.54-26 172.79-26.75 175.04-27.5 177.29-27.5L177.29-27.5Q179.44-27.5 181.21-26.85 182.99-26.2 184.19-25.1L184.19-25.1Q187.54-21.85 187.54-14.05L187.54-14.05 187.54-7.05Q187.54-4.6 187.86-3.65 188.19-2.7 189.29-2.7L189.29-2.7 191.54-2.7 191.54-0.95Q187.64 0.5 185.49 0.5L185.49 0.5Q183.94 0.5 183.39-0.63 182.84-1.75 182.84-4.95L182.84-4.95 182.64-4.95Q181.09-2.4 178.54-0.95 175.99 0.5 173.04 0.5L173.04 0.5Q169.89 0.5 168.09-1.2 166.29-2.9 166.29-5.85ZM175.49-2.65L175.49-2.65Q176.74-2.65 178.19-3.38 179.64-4.1 180.64-5.35L180.64-5.35Q181.39-6.25 181.79-7.6 182.19-8.95 182.19-10.8L182.19-10.8Q182.19-11.55 182.14-12.35 182.09-13.15 181.99-13.9L181.99-13.9Q178.14-13.1 175.96-12.2 173.79-11.3 172.86-10.05 171.94-8.8 171.94-7L171.94-7Q171.94-4.85 172.94-3.75 173.94-2.65 175.49-2.65ZM227.38-24.55L227.38-11.35 224.33-11.35 223.48-16.3 215.63-16.3 215.63-3.6 221.48-2.65 221.48 0 205.43 0 205.43-2.4 210.13-3.6 210.13-32.55 205.43-33.6 205.43-36 234.08-36 234.08-25.3 230.88-25.3 229.28-32.85 215.63-32.85 215.63-19.55 223.48-19.55 224.33-24.55 227.38-24.55ZM236.23-5.85L236.23-5.85Q236.23-9.85 239.93-12.1 243.63-14.35 251.98-15.6L251.98-15.6Q251.78-18.4 251.43-19.95 251.08-21.5 250.53-22.5L250.53-22.5Q249.88-23.75 248.73-24.4 247.58-25.05 246.13-25.05L246.13-25.05Q244.83-25.05 243.78-24.58 242.73-24.1 242.38-23.3L242.38-23.3Q243.08-22.85 243.38-22.08 243.68-21.3 243.68-20.65L243.68-20.65Q243.68-19.4 242.78-18.6 241.88-17.8 240.53-17.8L240.53-17.8Q239.23-17.8 238.41-18.68 237.58-19.55 237.58-21L237.58-21Q237.58-23.1 239.03-24.55 240.48-26 242.73-26.75 244.98-27.5 247.23-27.5L247.23-27.5Q249.38-27.5 251.16-26.85 252.93-26.2 254.13-25.1L254.13-25.1Q257.48-21.85 257.48-14.05L257.48-14.05 257.48-7.05Q257.48-4.6 257.81-3.65 258.13-2.7 259.23-2.7L259.23-2.7 261.48-2.7 261.48-0.95Q257.58 0.5 255.43 0.5L255.43 0.5Q253.88 0.5 253.33-0.63 252.78-1.75 252.78-4.95L252.78-4.95 252.58-4.95Q251.03-2.4 248.48-0.95 245.93 0.5 242.98 0.5L242.98 0.5Q239.83 0.5 238.03-1.2 236.23-2.9 236.23-5.85ZM245.43-2.65L245.43-2.65Q246.68-2.65 248.13-3.38 249.58-4.1 250.58-5.35L250.58-5.35Q251.33-6.25 251.73-7.6 252.13-8.95 252.13-10.8L252.13-10.8Q252.13-11.55 252.08-12.35 252.03-13.15 251.93-13.9L251.93-13.9Q248.08-13.1 245.91-12.2 243.73-11.3 242.81-10.05 241.88-8.8 241.88-7L241.88-7Q241.88-4.85 242.88-3.75 243.88-2.65 245.43-2.65ZM278.28-23.85L278.28-23.85Q278.13-23.95 277.95-24 277.78-24.05 277.58-24.05L277.58-24.05Q277.03-24.05 276.33-23.45 275.63-22.85 275-21.95 274.38-21.05 273.93-20L273.93-20Q273.23-18.3 272.83-16.35 272.43-14.4 272.43-12.1L272.43-12.1 272.43-3.25 277.83-2.3 277.83 0 263.23 0 263.23-2.3 267.08-3.25 267.08-24 263.23-24.95 263.23-27 270.93-27 272.03-20.4 272.23-20.4Q273.38-23.8 275.33-25.65 277.28-27.5 279.63-27.5L279.63-27.5Q281.58-27.5 282.88-26.28 284.18-25.05 284.18-23L284.18-23Q284.18-21.5 283.35-20.5 282.53-19.5 281.13-19.5L281.13-19.5Q279.58-19.5 278.8-20.38 278.03-21.25 278.03-22.5L278.03-22.5Q278.03-22.8 278.05-23.05 278.08-23.3 278.28-23.85ZM286.38-2.3L290.23-3.25 290.23-23.75 286.38-24.7 286.38-27 294.08-27 295.18-22 295.38-22Q296.83-24.5 299.25-26 301.68-27.5 304.43-27.5L304.43-27.5Q306.48-27.5 308.08-26.73 309.68-25.95 310.43-24.8L310.43-24.8Q311.23-23.55 311.73-21.5L311.73-21.5Q313.33-24.3 315.88-25.9 318.43-27.5 321.33-27.5L321.33-27.5Q323.33-27.5 324.93-26.73 326.53-25.95 327.38-24.6L327.38-24.6Q327.98-23.65 328.33-22.15 328.68-20.65 328.83-18.28 328.98-15.9 328.98-12.25L328.98-12.25 328.98-3.25 332.83-2.3 332.83 0 320.28 0 320.28-2.3 323.63-3.25 323.63-13.9Q323.63-17.15 323.45-18.75 323.28-20.35 322.83-21.25L322.83-21.25Q322.28-22.45 321.28-23.03 320.28-23.6 319.03-23.6L319.03-23.6Q317.78-23.6 316.63-23.15 315.48-22.7 314.53-21.85L314.53-21.85Q313.43-20.85 312.9-19.5 312.38-18.15 312.28-16.1L312.28-16.1 312.28-3.25 315.63-2.3 315.63 0 303.58 0 303.58-2.3 306.93-3.25 306.93-13.9Q306.93-17.15 306.75-18.75 306.58-20.35 306.13-21.25L306.13-21.25Q305.58-22.45 304.58-23.03 303.58-23.6 302.33-23.6L302.33-23.6Q301.08-23.6 299.93-23.15 298.78-22.7 297.83-21.85L297.83-21.85Q296.73-20.85 296.2-19.5 295.68-18.15 295.58-16.1L295.58-16.1 295.58-3.25 298.93-2.3 298.93 0 286.38 0 286.38-2.3ZM345.97-2.05L345.97-2.05Q348.67-2.05 350.45-3.13 352.22-4.2 352.22-6.15L352.22-6.15Q352.22-7.7 351.12-8.68 350.02-9.65 348.4-10.25 346.77-10.85 345.12-11.35L345.12-11.35Q343.07-12 341.17-12.9 339.27-13.8 338.07-15.4 336.87-17 336.87-19.55L336.87-19.55Q336.87-23.15 339.5-25.33 342.12-27.5 346.82-27.5L346.82-27.5Q351.02-27.5 353.5-25.75 355.97-24 355.97-21.05L355.97-21.05Q355.97-19.45 355.2-18.53 354.42-17.6 353.02-17.6L353.02-17.6Q351.72-17.6 350.92-18.32 350.12-19.05 350.12-20.1L350.12-20.1Q350.12-21.05 350.62-21.83 351.12-22.6 351.92-22.95L351.92-22.95Q351.17-23.95 350-24.45 348.82-24.95 347.02-24.95L347.02-24.95Q344.22-24.95 342.85-23.9 341.47-22.85 341.47-20.9L341.47-20.9Q341.47-19.45 342.15-18.57 342.82-17.7 344.12-17.13 345.42-16.55 347.27-15.95L347.27-15.95Q349.07-15.4 350.8-14.78 352.52-14.15 353.95-13.23 355.37-12.3 356.22-10.95 357.07-9.6 357.07-7.6L357.07-7.6Q357.07-5.05 355.6-3.23 354.12-1.4 351.57-0.45 349.02 0.5 345.77 0.5L345.77 0.5Q341.27 0.5 338.57-1.3 335.87-3.1 335.87-6.1L335.87-6.1Q335.87-7.85 336.72-8.85 337.57-9.85 339.02-9.85L339.02-9.85Q340.22-9.85 341.12-9.15 342.02-8.45 342.02-7.3L342.02-7.3Q342.02-6.35 341.47-5.5 340.92-4.65 340.22-4.25L340.22-4.25Q340.82-3.35 342.32-2.7 343.82-2.05 345.97-2.05Z" opacity="1" transform="matrix(1,0,0,1,0,0)" fill="#000000" class="wordmark-text-0" data-fill-palette-color="primary" id="text-0"></path></svg></g></svg></g></svg></g></svg></g></svg></g><defs></defs></svg><rect width="395.52" height="40.6890642615558" fill="none" stroke="none" visibility="hidden"></rect></g></svg></g></svg>